<?xml version="1.0" encoding="utf-8"?>
<!-- Generator: Adobe Illustrator 26.0.1, SVG Export Plug-In . SVG Version: 6.00 Build 0)  -->
<svg version="1.1" id="Exit_Full_Screen" xmlns="http://www.w3.org/2000/svg" xmlns:xlink="http://www.w3.org/1999/xlink" x="0px"
	 y="0px" viewBox="0 0 30.6 30.6" style="enable-background:new 0 0 30.6 30.6;" xml:space="preserve">
<style type="text/css">
	.st0{fill:url(#Path_14_00000056423791730439180180000005790043210178894209_);}
	.st1{fill:url(#Path_15_00000096036385593828235360000018180756593274243221_);}
</style>
<linearGradient id="Path_14_00000159465278117225048120000012458757166945019266_" gradientUnits="userSpaceOnUse" x1="2.5453" y1="2.3676" x2="29.9366" y2="30.248">
	<stop  offset="0" style="stop-color:#F5DF83"/>
	<stop  offset="1" style="stop-color:#B68111"/>
</linearGradient>
<path id="Path_14" style="fill:url(#Path_14_00000159465278117225048120000012458757166945019266_);" d="M3.1,0C1.4,0,0,1.4,0,3.1
	v24.5l0,0c0,1.7,1.4,3.1,3.1,3.1h13.1v-2H3.1l0,0c-0.6,0-1-0.5-1-1V4.9l8.7,8.7l-2.2,2.2c-0.1,0.1-0.2,0.3-0.2,0.4
	c0,0.3,0.3,0.6,0.6,0.6h7.5l0,0c0.3,0,0.6-0.3,0.6-0.6V8.7c0-0.2-0.1-0.3-0.2-0.4c-0.2-0.2-0.6-0.2-0.8,0l-2.4,2.5L4.9,2h22.7l0,0
	c0.6,0,1,0.5,1,1v13.1h2v-13l0,0c0-1.7-1.4-3.1-3.1-3.1H3.1L3.1,0z"/>
<linearGradient id="Path_15_00000175310276091464902730000012084722885333211536_" gradientUnits="userSpaceOnUse" x1="2.5734" y1="2.3399" x2="29.9647" y2="30.2204">
	<stop  offset="0" style="stop-color:#F5DF83"/>
	<stop  offset="1" style="stop-color:#B68111"/>
</linearGradient>
<path id="Path_15" style="fill:url(#Path_15_00000175310276091464902730000012084722885333211536_);" d="M19.7,17.7
	c-1.1,0-2,0.9-2.1,2v8.9l0,0c0,1.1,0.9,2,2,2h8.9l0,0c1.1,0,2-0.9,2-2v-8.8c0-1.1-0.9-2-2-2L19.7,17.7L19.7,17.7z M19.7,28.6v-8.9
	h8.9v8.9H19.7L19.7,28.6z"/>
</svg>
